<?xml version="1.0" encoding="utf-8"?>
<!-- Generator: Adobe Illustrator 21.1.0, SVG Export Plug-In . SVG Version: 6.00 Build 0)  -->
<svg version="1.1" id="Layer_1" xmlns="http://www.w3.org/2000/svg" xmlns:xlink="http://www.w3.org/1999/xlink" x="0px" y="0px"
	 width="131px" height="24.2px" viewBox="0 0 131 24.2" enable-background="new 0 0 131 24.2" xml:space="preserve">
<path fill="#424242" d="M5.4,10.8c0.5-1,1.1-1.6,1.9-1.6c0.6,0,1.1,0.4,1.1,1.7v8.6h3.8v-8.7c0.5-1,1.1-1.6,1.9-1.6
	c0.6,0,1.1,0.4,1.1,1.7v8.6H19v-9.3c0-2.4-1.4-3.8-3.3-3.8c-1.6,0-2.8,0.7-3.8,2c-0.5-1.3-1.6-2-3-2C7.3,6.4,6.1,7,5.1,8.2L4.9,6.8
	H1.6v12.7h3.8V10.8z M26.8,11.6c-3.8,0-5.9,1.5-5.9,4.3c0,2.3,1.6,4,4.1,4c1.5,0,2.9-0.5,3.8-1.9c0.6,1.3,1.6,1.7,3.1,1.8l0.8-2.5
	c-0.6-0.2-0.9-0.6-0.9-1.6v-4.9c0-2.9-1.6-4.5-5.2-4.5c-1.4,0-3.2,0.3-4.8,0.9l0.9,2.5C24,9.3,25.2,9,26,9c1.6,0,2.2,0.5,2.2,2v0.5
	L26.8,11.6L26.8,11.6z M28.1,15.9c-0.5,0.8-1.1,1.2-2,1.2s-1.5-0.6-1.5-1.6c0-1.3,0.8-1.9,2.6-1.9h0.9V15.9L28.1,15.9z M39.1,16.8
	c-0.4,0-0.7-0.3-0.7-1V1.3l-3.8,0.4v14.5c0,2.3,1.2,3.6,3.3,3.6c0.9,0,1.8-0.2,2.4-0.4l-0.7-2.7C39.6,16.8,39.3,16.8,39.1,16.8
	L39.1,16.8z M45.7,6.7l-3.8-0.3v13h3.8 M55.8,10.8v8.6h3.8v-9.3c0-2.4-1.3-3.8-3.5-3.8c-1.6,0-2.8,0.7-3.9,1.9l-0.3-1.5h-3.3v12.7
	h3.8v-8.7c0.7-1,1.4-1.6,2.2-1.6C55.3,9.1,55.8,9.5,55.8,10.8L55.8,10.8z M73.2,9.1c0.9,0,1.6,0.3,2.4,0.9l1.6-2.3
	c-1.2-1-2.6-1.6-4.3-1.6c-3.8,0-6.2,2.8-6.2,6.9c0,4,2.4,6.6,6.3,6.6c1.7,0,3.1-0.6,4.3-1.5l-1.7-2.4c-0.8,0.7-1.5,0.9-2.4,0.9
	c-1.5,0-2.5-0.9-2.5-3.7C70.6,10.2,71.6,9.1,73.2,9.1L73.2,9.1z M84.1,6.2c-3.9,0-6.2,2.7-6.2,6.7c0,4.3,2.4,6.8,6.2,6.8
	c3.9,0,6.2-2.7,6.2-6.7C90.3,8.7,88,6.2,84.1,6.2L84.1,6.2z M84.1,16.9c-1.5,0-2.3-1.2-2.3-4c0-2.7,0.8-4,2.3-4s2.3,1.2,2.3,4
	S85.6,16.9,84.1,16.9L84.1,16.9z M111.8,6.2c-3.8,0-5.9,3-5.9,6.8c0,4,2.2,6.7,6.4,6.7c2.1,0,3.7-0.8,4.9-1.8l-1.6-2.1
	c-1.1,0.8-2,1.1-3,1.1c-1.6,0-2.6-0.6-2.9-2.9h7.8c0.1-0.4,0.1-1,0.1-1.4C117.7,8.6,115.4,6.2,111.8,6.2L111.8,6.2z M114,11.7h-4.2
	c0.2-2.2,0.9-3,2.2-3c1.5,0,2,1.2,2.1,2.9L114,11.7L114,11.7z M125.5,11.5c-2.3-0.7-2.6-1-2.6-1.6s0.5-1,1.6-1c1,0,2,0.4,3,1
	l1.4-2.2c-1.2-1-2.8-1.6-4.6-1.6c-3.2,0-5.2,1.7-5.2,3.9c0,2,1.2,3.2,3.7,4c2.3,0.7,2.7,0.9,2.7,1.8c0,0.7-0.7,1.2-1.9,1.2
	c-1.2,0-2.4-0.5-3.3-1.3l-1.9,2.1c1.2,1.1,3.1,1.9,5.3,1.9c3.1,0,5.6-1.6,5.6-4.2C129.4,13.3,128,12.2,125.5,11.5L125.5,11.5z
	 M100.2,1.2L100.2,1.2l-0.1,6.2c-0.7-0.7-1.8-1.2-2.9-1.2C93.9,6.2,92,9,92,12.9c0,4.1,1.6,6.8,4.8,6.8c1.7,0,2.9-0.8,3.6-1.9
	l0.2,1.5h3.3V2.1c-0.2,0-0.3,0-0.5,0C102.1,2.1,101,1.8,100.2,1.2L100.2,1.2z M100.1,15.5c-0.6,1-1.3,1.4-2.2,1.4
	c-1.2,0-2.1-0.8-2.1-4c0-2.8,1-4,2.3-4c0.8,0,1.4,0.4,2,1.1L100.1,15.5L100.1,15.5z"/>
<linearGradient id="SVGID_1_" gradientUnits="userSpaceOnUse" x1="61.6258" y1="-811.88" x2="65.9449" y2="-811.88" gradientTransform="matrix(1 0 0 -1 0 -794.18)">
	<stop  offset="0" style="stop-color:#808080"/>
	<stop  offset="1" style="stop-color:#FFADA8"/>
</linearGradient>
<path fill="url(#SVGID_1_)" d="M63.8,15.5c-1.2,0-2.2,1-2.2,2.2s1,2.2,2.2,2.2s2.2-1,2.2-2.2C65.9,16.5,65,15.5,63.8,15.5L63.8,15.5
	z"/>
</svg>
