<svg xmlns="http://www.w3.org/2000/svg" width="878.378" height="140.993" viewBox="0 0 878.378 140.993"><path fill="#424242" d="M35.43 72.235C39.088 65.19 43.1 61.18 48.45 61.18c3.834 0 7.222 2.406 7.222 11.41v57.865h25.32v-58.13c3.657-7.045 7.49-11.057 13.018-11.057 3.834 0 7.222 2.407 7.222 11.412v57.864h25.32V68.4c0-16.137-9.093-25.677-22.29-25.677-10.876 0-18.722 4.458-25.5 13.463-3.21-8.648-10.61-13.463-20.06-13.463-10.432 0-18.1 4.37-24.697 12.66l-1.783-9.896H10.11v85.058h25.32v-58.31zm144.17 5.617c-25.766 0-39.853 10.075-39.853 28.71 0 15.513 10.7 26.568 27.73 26.568 10.074 0 19.525-3.388 25.677-12.84 3.834 8.47 10.432 11.503 20.507 12.305l5.26-16.494c-4.01-1.426-5.794-3.833-5.794-10.43V72.68c0-19.703-10.61-30.135-35.218-30.135-9.63 0-21.31 2.23-32.008 6.24l5.795 16.674c8.47-2.854 16.85-4.46 22.29-4.46 10.432 0 14.444 3.032 14.444 13.107v3.656l-8.83.09zm8.65 28.977c-3.03 5.17-7.49 8.202-13.463 8.202-6.24 0-9.897-4.012-9.897-10.7 0-8.47 5.617-12.48 17.12-12.48h6.24v14.977zm73.824 6.24c-2.764 0-4.37-1.783-4.37-6.598V8.754l-25.32 2.764v97.54c0 15.692 8.292 24.073 22.468 24.073 5.885 0 12.037-1.158 16.316-2.852l-4.993-17.92c-.98.355-2.764.712-4.1.712zm44.134-67.76l-25.32-1.963v87.11h25.32m67.85-57.954v57.864h25.32V68.223c0-16.138-8.826-25.678-23.537-25.678-10.61 0-18.722 4.37-25.944 12.84l-1.783-10.076H326v85.057h25.322V72.235c4.458-7.044 9.094-11.056 14.71-11.056 4.994 0 8.026 2.407 8.026 11.323zm116.8-11.413c5.794 0 10.698 1.962 16.048 6.24l11.056-15.245c-8.203-6.865-17.297-10.432-29.155-10.432-25.5 0-41.637 18.902-41.637 46.006 0 26.925 16.05 44.58 42.172 44.58 11.68 0 20.863-3.835 28.71-10.076l-11.503-16.138c-5.618 4.37-9.81 6.24-15.87 6.24-10.076 0-16.852-5.794-16.852-24.696-.09-19.08 6.15-26.48 17.03-26.48zm73.11-19.347c-25.946 0-41.638 17.92-41.638 45.204 0 28.71 15.87 45.382 41.637 45.382 25.945 0 41.637-17.922 41.637-45.205 0-28.71-15.69-45.382-41.637-45.382zm0 71.862c-10.254 0-15.336-7.846-15.336-26.748 0-18.456 5.17-26.57 15.335-26.57 10.253 0 15.335 7.847 15.335 26.75 0 18.455-5.08 26.568-15.335 26.568zM750.13 41.743c-25.767 0-39.765 20.15-39.765 45.65 0 26.57 14.444 44.847 42.797 44.847 13.82 0 24.697-5.17 33.167-11.858l-10.43-14.087c-7.4 5.17-13.464 7.49-20.33 7.49-10.43 0-17.653-4.19-19.347-19.35h52.693c.357-2.585.446-6.418.446-9.093 0-27.64-14.89-43.6-39.23-43.6zm14.355 37.096h-28.353c1.16-14.994 6.063-20.342 14.622-20.342 10.075 0 13.64 7.89 13.82 19.2l-.09 1.14zm77.568-1.7c-15.246-4.46-17.475-6.42-17.475-10.878 0-3.834 3.388-6.42 11.056-6.42 6.598 0 13.64 2.408 20.15 6.688l9.273-14.444c-7.847-6.42-18.903-10.432-31.207-10.432-21.487 0-34.772 11.412-34.772 25.945 0 13.105 8.293 21.754 25.144 26.568 15.425 4.37 17.92 6.063 17.92 12.037 0 4.993-4.635 7.846-12.48 7.846-8.204 0-16.05-3.387-22.29-8.47l-12.483 13.91c8.293 7.49 20.864 12.66 35.576 12.66 21.13 0 37.804-10.43 37.804-27.995.087-15.158-9.364-22.202-26.215-27.016zM672.028 7.95l-.446-.088v41.816c-4.993-4.993-11.858-8.024-19.704-8.024-21.933 0-35.218 18.723-35.218 45.025 0 27.55 10.7 45.47 32.365 45.47 11.502 0 19.258-5.617 24.162-12.66l1.248 9.896h22.468V13.926c-1.16.088-2.318.088-3.477.088-8.648-.09-15.78-2.14-21.398-6.063zm-.445 96.115c-4.012 6.42-8.648 9.63-14.622 9.63-8.29 0-14.086-5.618-14.086-26.75 0-19.08 6.42-26.747 15.514-26.747 5.617 0 9.273 2.764 13.106 7.222l.09 36.645z"/><linearGradient id="a" gradientUnits="userSpaceOnUse" x1="413.175" y1="-146.777" x2="442.171" y2="-146.777" gradientTransform="matrix(1 0 0 -1 0 -28.18)"><stop offset="0" stop-color="gray"/><stop offset="1" stop-color="#FFADA8"/></linearGradient><path fill="url(#a)" d="M427.732 104.065c-8.203 0-14.622 6.598-14.622 14.444 0 8.023 6.42 14.62 14.622 14.62 8.024 0 14.444-6.597 14.444-14.62 0-7.847-6.42-14.445-14.444-14.445z"/></svg>