<svg id="Layer_1" xmlns="http://www.w3.org/2000/svg" width="500" height="500" viewBox="0 0 500 500"><style>.st0{fill:#424242;} .st1{fill:url(#SVGID_1_);}</style><path class="st0" d="M36.1 179.6c4.1-7.9 8.6-12.4 14.6-12.4 4.3 0 8.1 2.7 8.1 12.8v64.9h28.4v-65.2c4.1-7.9 8.4-12.4 14.6-12.4 4.3 0 8.1 2.7 8.1 12.8V245h28.4v-69.7c0-18.1-10.2-28.8-25-28.8-12.2 0-21 5-28.6 15.1-3.6-9.7-11.9-15.1-22.5-15.1-11.7 0-20.3 4.9-27.7 14.2l-2-11.1H7.7V245h28.4v-65.4zm161.7 6.3c-28.9 0-44.7 11.3-44.7 32.2 0 17.4 12 29.8 31.1 29.8 11.3 0 21.9-3.8 28.8-14.4 4.3 9.5 11.7 12.9 23 13.8l5.9-18.5c-4.5-1.6-6.5-4.3-6.5-11.7v-37c0-22.1-11.9-33.8-39.5-33.8-10.8 0-23.9 2.5-35.9 7l6.5 18.7c9.5-3.2 18.9-5 25-5 11.7 0 16.2 3.4 16.2 14.7v4.1l-9.9.1zm9.7 32.5c-3.4 5.8-8.4 9.2-15.1 9.2-7 0-11.1-4.5-11.1-12 0-9.5 6.3-14 19.2-14h7v16.8zm82.8 7c-3.1 0-4.9-2-4.9-7.4V108.4l-28.4 3.1v109.4c0 17.6 9.3 27 25.2 27 6.6 0 13.5-1.3 18.3-3.2l-5.6-20.1c-1.1.4-3.1.8-4.6.8zm49.5-76l-28.4-2.2v97.7h28.4m76.1-65v64.9h28.4v-69.7c0-18.1-9.9-28.8-26.4-28.8-11.9 0-21 4.9-29.1 14.4l-2-11.3H362v95.4h28.4v-65.2c5-7.9 10.2-12.4 16.5-12.4 5.6 0 9 2.7 9 12.7zm-359 131.9c6.5 0 12 2.2 18 7l12.4-17.1C78.1 294 67.9 290 54.6 290 26 290 7.9 311.2 7.9 341.6c0 30.2 18 50 47.3 50 13.1 0 23.4-4.3 32.2-11.3l-12.9-18.1c-6.3 4.9-11 7-17.8 7-11.3 0-18.9-6.5-18.9-27.7-.1-21.4 6.9-29.7 19.1-29.7zm82-21.7c-29.1 0-46.7 20.1-46.7 50.7 0 32.2 17.8 50.9 46.7 50.9 29.1 0 46.7-20.1 46.7-50.7 0-32.2-17.6-50.9-46.7-50.9zm0 80.6c-11.5 0-17.2-8.8-17.2-30 0-20.7 5.8-29.8 17.2-29.8 11.5 0 17.2 8.8 17.2 30 0 20.7-5.7 29.8-17.2 29.8zm208.8-80.6c-28.9 0-44.6 22.6-44.6 51.2 0 29.8 16.2 50.3 48 50.3 15.5 0 27.7-5.8 37.2-13.3l-11.7-15.8c-8.3 5.8-15.1 8.4-22.8 8.4-11.7 0-19.8-4.7-21.7-21.7h59.1c.4-2.9.5-7.2.5-10.2 0-31-16.7-48.9-44-48.9zm16.1 42H332c1.3-17.1 6.8-23.2 16.4-23.2 11.3 0 15.3 9 15.5 21.9l-.1 1.3zm87-2.3c-17.1-5-19.6-7.2-19.6-12.2 0-4.3 3.8-7.2 12.4-7.2 7.4 0 15.3 2.7 22.6 7.5l10.4-16.2c-8.8-7.2-21.2-11.7-35-11.7-24.1 0-39 12.8-39 29.1 0 14.7 9.3 24.4 28.2 29.8 17.3 4.9 20.1 6.8 20.1 13.5 0 5.6-5.2 8.8-14 8.8-9.2 0-18-3.8-25-9.5l-14 15.6c9.3 8.4 23.4 14.2 39.9 14.2 23.7 0 42.4-11.7 42.4-31.4.1-17-10.5-24.9-29.4-30.3zm-190.7-77.6l-.5-.1V299c-5.6-5.6-13.3-9-22.1-9-24.6 0-39.5 21-39.5 50.5 0 30.9 12 51 36.3 51 12.9 0 21.6-6.3 27.1-14.2l1.4 11.1H288V258.9c-1.3.1-2.6.1-3.9.1-9.7-.1-17.7-2.4-24-6.8zm-.5 107.8c-4.5 7.2-9.7 10.8-16.4 10.8-9.3 0-15.8-6.3-15.8-30 0-21.4 7.2-30 17.4-30 6.3 0 10.4 3.1 14.7 8.1l.1 41.1z"/><linearGradient id="SVGID_1_" gradientUnits="userSpaceOnUse" x1="459.773" y1="231.584" x2="492.295" y2="231.584"><stop offset="0" stop-color="gray"/><stop offset="1" stop-color="#FFADA8"/></linearGradient><path class="st1" d="M476.1 215.3c-9.2 0-16.4 7.4-16.4 16.2 0 9 7.2 16.4 16.4 16.4 9 0 16.2-7.4 16.2-16.4 0-8.8-7.2-16.2-16.2-16.2z"/></svg>