<svg xmlns="http://www.w3.org/2000/svg" width="430.116" height="430.117" viewBox="0 0 430.116 430.117"><path d="M315.493 358.642c54.446-34.15 90.73-95.204 90.73-164.865C406.222 86.76 320.626 0 215.048 0 109.47 0 23.894 86.76 23.894 193.777c0 107.025 85.575 193.777 191.154 193.777 15.53 0 30.615-1.923 45.064-5.47 18.146 33.015 45.793 56.378 104.477 45.205V394.44s-37.634-9.46-49.097-35.8zM314.16 219.4c0 32.352-10.297 61.717-27.023 83.41-21.012-22.37-53.942-40.754-95.73-38.41v38.083s28.348 1.12 47.752 34.47c-7.272 2.14-14.843 3.296-22.644 3.296-53.933 0-97.633-54.102-97.633-120.86v-49.923c0-66.75 43.7-120.858 97.633-120.858 53.93 0 97.643 54.106 97.643 120.857V219.4z"/></svg>